<svg width="40" height="40" viewBox="0 0 40 40" fill="none" xmlns="http://www.w3.org/2000/svg">
<g clip-path="url(#clip0_3_69)">
<path d="M38 20C38 29.9411 29.9411 38 20 38C14.8895 38 11 35 6 34C4 30 2 24.8307 2 20C2 10.0589 10.0589 2 20 2C29.9411 2 38 10.0589 38 20Z" fill="#07C347"/>
<path d="M29.5967 22.9844C29.5187 22.947 26.6026 21.511 26.0845 21.3246C25.8729 21.2486 25.6463 21.1744 25.4052 21.1744C25.0115 21.1744 24.6807 21.3707 24.423 21.7561C24.1317 22.1891 23.2499 23.2199 22.9774 23.5278C22.9419 23.5684 22.8933 23.617 22.8642 23.617C22.8381 23.617 22.3868 23.4312 22.2502 23.3718C19.122 22.013 16.7476 18.7453 16.422 18.1943C16.3755 18.1151 16.3736 18.0791 16.3732 18.0791C16.3846 18.0371 16.4898 17.9317 16.5441 17.8773C16.7029 17.7201 16.875 17.513 17.0415 17.3126C17.1203 17.2177 17.1993 17.1226 17.2768 17.033C17.5184 16.7519 17.6259 16.5338 17.7506 16.281L17.8159 16.1497C18.1203 15.5449 17.8603 15.0345 17.7763 14.8697C17.7073 14.7318 16.476 11.7601 16.3451 11.4479C16.0303 10.6945 15.6143 10.3438 15.0363 10.3438C14.9827 10.3438 15.0363 10.3437 14.8114 10.3532C14.5375 10.3648 13.0459 10.5612 12.3864 10.9769C11.687 11.4178 10.5039 12.8232 10.5039 15.2949C10.5039 17.5195 11.9156 19.6199 12.5217 20.4187C12.5368 20.4388 12.5644 20.4797 12.6046 20.5384C14.9258 23.9283 17.8194 26.4405 20.7528 27.6123C23.5768 28.7404 24.9141 28.8708 25.6743 28.8708C25.6745 28.8708 25.6745 28.8708 25.6745 28.8708C25.9939 28.8708 26.2497 28.8457 26.4752 28.8235L26.6184 28.8099C27.5939 28.7234 29.7378 27.6125 30.2255 26.2573C30.6096 25.1899 30.7109 24.0236 30.4554 23.6004C30.2803 23.3126 29.9786 23.1678 29.5967 22.9844Z" fill="white"/>
<path d="M20.3551 0C9.52179 0 0.708282 8.74727 0.708282 19.4991C0.708282 22.9766 1.63894 26.3806 3.40192 29.3599L0.0275023 39.3138C-0.0353548 39.4994 0.0113984 39.7045 0.148671 39.8443C0.247762 39.9455 0.382178 40 0.519451 40C0.572048 40 0.625035 39.9921 0.676723 39.9756L11.0559 36.6774C13.8962 38.1949 17.1064 38.996 20.3552 38.996C31.1874 38.9961 40 30.2497 40 19.4991C40 8.74727 31.1874 0 20.3551 0ZM20.3551 34.9343C17.2981 34.9343 14.3371 34.0516 11.7919 32.3814C11.7063 32.3252 11.607 32.2964 11.507 32.2964C11.4541 32.2964 11.4011 32.3044 11.3496 32.3208L6.15023 33.9735L7.82868 29.0217C7.88296 28.8614 7.85582 28.6847 7.75582 28.5481C5.81764 25.8997 4.79309 22.7708 4.79309 19.4991C4.79309 10.987 11.7741 4.06182 20.3549 4.06182C28.9347 4.06182 35.9149 10.987 35.9149 19.4991C35.9151 28.0101 28.9349 34.9343 20.3551 34.9343Z" fill="white"/>
</g>
<defs>
<clipPath id="clip0_3_69">
<rect width="40" height="40" fill="white"/>
</clipPath>
</defs>
</svg>
